<?xml version="1.0" standalone="no"?>
<!DOCTYPE svg PUBLIC "-//W3C//DTD SVG 20010904//EN"
 "http://www.w3.org/TR/2001/REC-SVG-20010904/DTD/svg10.dtd">
<svg version="1.0" xmlns="http://www.w3.org/2000/svg"
 width="252.000000pt" height="510.000000pt" viewBox="0 0 252.000000 510.000000"
 preserveAspectRatio="xMidYMid meet">
<metadata>
Created by potrace 1.16, written by Peter Selinger 2001-2019
</metadata>
<g transform="translate(0.000000,510.000000) scale(0.100000,-0.100000)"
fill="#000000" stroke="none">
<path d="M0 2550 l0 -2550 1260 0 1260 0 0 2550 0 2550 -1260 0 -1260 0 0
-2550z m2470 2481 c7 -14 9 -795 8 -2477 l-3 -2458 -82 74 -83 73 0 2306 0
2306 82 82 c46 46 78 83 72 83 -5 0 -38 -29 -71 -64 -34 -35 -74 -73 -89 -85
l-27 -21 -1000 0 -1001 0 -78 83 c-43 45 -83 90 -89 100 -9 16 49 17 1170 17
1157 0 1180 0 1191 -19z m-2286 -109 l66 -74 0 -2301 0 -2302 -82 -82 c-46
-46 -86 -83 -90 -83 -10 0 -11 4934 -1 4944 7 7 9 6 107 -102z m1099 -89
l-1003 -3 -2 -2298 -3 -2297 -3 2290 c-1 1260 0 2296 3 2303 3 9 212 11 1007
10 l1003 -3 -1002 -2z m1014 -4625 c15 -6 32 -12 36 -12 5 -1 32 -26 60 -57
29 -30 45 -46 37 -35 -15 21 -15 21 7 2 13 -10 20 -23 17 -27 -3 -5 -527 -9
-1177 -9 l-1171 0 74 75 74 75 1008 0 c744 0 1014 -3 1035 -12z"/>
</g>
</svg>
